<svg width="3586" height="1944" xmlns="http://www.w3.org/2000/svg" xmlns:xlink="http://www.w3.org/1999/xlink" xml:space="preserve" overflow="hidden"><g transform="translate(-108 -198)"><rect x="804" y="200" width="2887" height="1939" fill="#FFFFFF"/><path d="M110.5 259.251C110.5 226.804 136.804 200.5 169.251 200.5L3632.75 200.5C3665.2 200.5 3691.5 226.804 3691.5 259.251L3691.5 2080.75C3691.5 2113.2 3665.2 2139.5 3632.75 2139.5L169.251 2139.5C136.804 2139.5 110.5 2113.2 110.5 2080.75Z" stroke="#D9D9D9" stroke-width="4.58333" stroke-miterlimit="8" fill="none" fill-rule="evenodd"/><text font-family="Aileron Bold,Aileron Bold_MSFontService,sans-serif" font-weight="700" font-size="73" transform="matrix(1 0 0 1 323.427 907)">Prompt </text><text font-family="Aileron Bold,Aileron Bold_MSFontService,sans-serif" font-weight="700" font-size="73" transform="matrix(1 0 0 1 220.6 995)">Compression </text><text font-family="Aileron Bold,Aileron Bold_MSFontService,sans-serif" font-weight="700" font-size="73" transform="matrix(1 0 0 1 428.087 1083)">&amp; </text><text font-family="Aileron Bold,Aileron Bold_MSFontService,sans-serif" font-weight="700" font-size="73" transform="matrix(1 0 0 1 228.139 1171)">Optimization</text><text fill="#8082A4" font-family="Aileron,Aileron_MSFontService,sans-serif" font-weight="400" font-size="55" transform="matrix(1 0 0 1 227.269 1313)">improve accuracy, </text><text fill="#8082A4" font-family="Aileron,Aileron_MSFontService,sans-serif" font-weight="400" font-size="55" transform="matrix(1 0 0 1 241.362 1379)">reduce costs and </text><text fill="#8082A4" font-family="Aileron,Aileron_MSFontService,sans-serif" font-weight="400" font-size="55" transform="matrix(1 0 0 1 210.379 1445)">find good trade</text><text fill="#8082A4" font-family="Aileron,Aileron_MSFontService,sans-serif" font-weight="400" font-size="55" transform="matrix(1 0 0 1 590.796 1445)">-</text><text fill="#8082A4" font-family="Aileron,Aileron_MSFontService,sans-serif" font-weight="400" font-size="55" transform="matrix(1 0 0 1 605.691 1445)">offs</text><text font-family="Aileron Bold,Aileron Bold_MSFontService,sans-serif" font-weight="700" font-size="73" transform="matrix(1 0 0 1 1728.4 367)">Prompts</text><text font-family="Aileron Bold,Aileron Bold_MSFontService,sans-serif" font-weight="700" font-size="73" transform="matrix(1 0 0 1 2023.66 367)">-</text><text font-family="Aileron Bold,Aileron Bold_MSFontService,sans-serif" font-weight="700" font-size="73" transform="matrix(1 0 0 1 2045.43 367)">As</text><text font-family="Aileron Bold,Aileron Bold_MSFontService,sans-serif" font-weight="700" font-size="73" transform="matrix(1 0 0 1 2131.94 367)">-</text><text font-family="Aileron Bold,Aileron Bold_MSFontService,sans-serif" font-weight="700" font-size="73" transform="matrix(1 0 0 1 2153.71 367)">Programs Stack</text><text fill="#8082A4" font-family="Aileron,Aileron_MSFontService,sans-serif" font-weight="400" font-size="55" transform="matrix(1 0 0 1 1342.57 458)">enables easy and flexible composition, transformation and optimization</text><path d="M1425.5 1787.32C1425.5 1777.48 1433.48 1769.5 1443.32 1769.5L3515.68 1769.5C3525.52 1769.5 3533.5 1777.48 3533.5 1787.32L3533.5 1990.68C3533.5 2000.52 3525.52 2008.5 3515.68 2008.5L1443.32 2008.5C1433.48 2008.5 1425.5 2000.52 1425.5 1990.68Z" stroke="#F1F3F4" stroke-width="4.58333" stroke-miterlimit="8" fill="#FFFFFF" fill-rule="evenodd"/><text font-family="Aileron Bold,Aileron Bold_MSFontService,sans-serif" font-weight="700" font-size="60" transform="matrix(1 0 0 1 2225.69 1871)">Prompt Operators</text><text fill="#8082A4" font-family="Aileron,Aileron_MSFontService,sans-serif" font-weight="400" font-size="50" transform="matrix(1 0 0 1 2083.49 1947)">compose complex structures easily</text><path d="M1425.5 988.207C1425.5 975.114 1436.11 964.5 1449.21 964.5L2430.79 964.5C2443.89 964.5 2454.5 975.114 2454.5 988.207L2454.5 1268.79C2454.5 1281.89 2443.89 1292.5 2430.79 1292.5L1449.21 1292.5C1436.11 1292.5 1425.5 1281.89 1425.5 1268.79Z" stroke="#F1F3F4" stroke-width="4.58333" stroke-miterlimit="8" fill="#FFFFFF" fill-rule="evenodd"/><text font-family="Aileron Bold,Aileron Bold_MSFontService,sans-serif" font-weight="700" font-size="60" transform="matrix(1 0 0 1 1701.19 1068)">Prompt Mutators</text><text fill="#8082A4" font-family="Aileron,Aileron_MSFontService,sans-serif" font-weight="400" font-size="50" transform="matrix(1 0 0 1 1744.31 1144)">generate variants</text><path d="M1425.5 1370.14C1425.5 1357.08 1436.08 1346.5 1449.14 1346.5L2062.86 1346.5C2075.92 1346.5 2086.5 1357.08 2086.5 1370.14L2086.5 1649.86C2086.5 1662.92 2075.92 1673.5 2062.86 1673.5L1449.14 1673.5C1436.08 1673.5 1425.5 1662.92 1425.5 1649.86Z" stroke="#F1F3F4" stroke-width="4.58333" stroke-miterlimit="8" fill="#FFFFFF" fill-rule="evenodd"/><text font-family="Aileron Bold,Aileron Bold_MSFontService,sans-serif" font-weight="700" font-size="60" transform="matrix(1 0 0 1 1563.64 1449)">Metaprompts</text><text fill="#8082A4" font-family="Aileron,Aileron_MSFontService,sans-serif" font-weight="400" font-size="50" transform="matrix(1 0 0 1 1506.49 1526)">pre</text><text fill="#8082A4" font-family="Aileron,Aileron_MSFontService,sans-serif" font-weight="400" font-size="50" transform="matrix(1 0 0 1 1581.54 1526)">-</text><text fill="#8082A4" font-family="Aileron,Aileron_MSFontService,sans-serif" font-weight="400" font-size="50" transform="matrix(1 0 0 1 1595.29 1526)">built structures for </text><text fill="#8082A4" font-family="Aileron,Aileron_MSFontService,sans-serif" font-weight="400" font-size="50" transform="matrix(1 0 0 1 1591.56 1593)">common tasks</text><path d="M2127.5 1370.14C2127.5 1357.08 2138.08 1346.5 2151.14 1346.5L2807.86 1346.5C2820.92 1346.5 2831.5 1357.08 2831.5 1370.14L2831.5 1649.86C2831.5 1662.92 2820.92 1673.5 2807.86 1673.5L2151.14 1673.5C2138.08 1673.5 2127.5 1662.92 2127.5 1649.86Z" stroke="#F1F3F4" stroke-width="4.58333" stroke-miterlimit="8" fill="#FFFFFF" fill-rule="evenodd"/><text font-family="Aileron Bold,Aileron Bold_MSFontService,sans-serif" font-weight="700" font-size="60" transform="matrix(1 0 0 1 2290.29 1449)">Minibatching</text><text fill="#8082A4" font-family="Aileron,Aileron_MSFontService,sans-serif" font-weight="400" font-size="50" transform="matrix(1 0 0 1 2212.97 1526)">pack multiple instances </text><text fill="#8082A4" font-family="Aileron,Aileron_MSFontService,sans-serif" font-weight="400" font-size="50" transform="matrix(1 0 0 1 2238.48 1593)">into the same prompt</text><path d="M1961 1182.83C1961 1175.19 1967.19 1169 1974.83 1169L2244.17 1169C2251.81 1169 2258 1175.19 2258 1182.83L2258 1238.17C2258 1245.81 2251.81 1252 2244.17 1252L1974.83 1252C1967.19 1252 1961 1245.81 1961 1238.17Z" fill="#A8A9C1" fill-rule="evenodd"/><text fill="#FFFFFF" font-family="Aileron,Aileron_MSFontService,sans-serif" font-weight="400" font-size="46" transform="matrix(1 0 0 1 2006.94 1227)">continous</text><path d="M1634 1187.83C1634 1180.19 1640.19 1174 1647.83 1174L1917.17 1174C1924.81 1174 1931 1180.19 1931 1187.83L1931 1243.17C1931 1250.81 1924.81 1257 1917.17 1257L1647.83 1257C1640.19 1257 1634 1250.81 1634 1243.17Z" fill="#A8A9C1" fill-rule="evenodd"/><text fill="#FFFFFF" font-family="Aileron,Aileron_MSFontService,sans-serif" font-weight="400" font-size="46" transform="matrix(1 0 0 1 1700.67 1232)">discrete</text><text font-family="Aileron Bold,Aileron Bold_MSFontService,sans-serif" font-weight="700" font-size="60" transform="matrix(1 0 0 1 863.258 1888)">Programming </text><text font-family="Aileron Bold,Aileron Bold_MSFontService,sans-serif" font-weight="700" font-size="60" transform="matrix(1 0 0 1 918.075 1959)">Primitives</text><text font-family="Aileron Bold,Aileron Bold_MSFontService,sans-serif" font-weight="700" font-size="60" transform="matrix(1 0 0 1 914.433 1501)">Task &amp; Data </text><text font-family="Aileron Bold,Aileron Bold_MSFontService,sans-serif" font-weight="700" font-size="60" transform="matrix(1 0 0 1 889.408 1572)">Management </text><text font-family="Aileron Bold,Aileron Bold_MSFontService,sans-serif" font-weight="700" font-size="60" transform="matrix(1 0 0 1 852.087 1138)">Search Spaces</text><text font-family="Aileron Bold,Aileron Bold_MSFontService,sans-serif" font-weight="700" font-size="60" transform="matrix(1 0 0 1 960.367 760)">Search </text><text font-family="Aileron Bold,Aileron Bold_MSFontService,sans-serif" font-weight="700" font-size="55" transform="matrix(1 0 0 1 914.099 827)">Algorithms</text><path d="M1425.5 606.136C1425.5 593.082 1436.08 582.5 1449.14 582.5L2434.86 582.5C2447.92 582.5 2458.5 593.082 2458.5 606.136L2458.5 885.864C2458.5 898.918 2447.92 909.5 2434.86 909.5L1449.14 909.5C1436.08 909.5 1425.5 898.918 1425.5 885.864Z" stroke="#F1F3F4" stroke-width="4.58333" stroke-miterlimit="8" fill="#FFFFFF" fill-rule="evenodd"/><text font-family="Aileron Bold,Aileron Bold_MSFontService,sans-serif" font-weight="700" font-size="60" transform="matrix(1 0 0 1 1717.34 685)">Mutation</text><text font-family="Aileron Bold,Aileron Bold_MSFontService,sans-serif" font-weight="700" font-size="60" transform="matrix(1 0 0 1 1973.44 685)">-</text><text font-family="Aileron Bold,Aileron Bold_MSFontService,sans-serif" font-weight="700" font-size="60" transform="matrix(1 0 0 1 1991.2 685)">based</text><text fill="#8082A4" font-family="Aileron,Aileron_MSFontService,sans-serif" font-weight="400" font-size="50" transform="matrix(1 0 0 1 1623.09 761)">search over dynamic spaces</text><path d="M2504.5 619.208C2504.5 606.114 2515.11 595.5 2528.21 595.5L3525.79 595.5C3538.89 595.5 3549.5 606.114 3549.5 619.208L3549.5 899.792C3549.5 912.886 3538.89 923.5 3525.79 923.5L2528.21 923.5C2515.11 923.5 2504.5 912.886 2504.5 899.792Z" stroke="#F1F3F4" stroke-width="4.58333" stroke-miterlimit="8" fill="#FFFFFF" fill-rule="evenodd"/><text font-family="Aileron Bold,Aileron Bold_MSFontService,sans-serif" font-weight="700" font-size="60" transform="matrix(1 0 0 1 2830.09 698)">Choice</text><text font-family="Aileron Bold,Aileron Bold_MSFontService,sans-serif" font-weight="700" font-size="60" transform="matrix(1 0 0 1 3030.04 698)">-</text><text font-family="Aileron Bold,Aileron Bold_MSFontService,sans-serif" font-weight="700" font-size="60" transform="matrix(1 0 0 1 3047.8 698)">based</text><text fill="#8082A4" font-family="Aileron,Aileron_MSFontService,sans-serif" font-weight="400" font-size="50" transform="matrix(1 0 0 1 2750.73 774)">search over fixed spaces</text><path d="M2504.5 988.136C2504.5 975.082 2515.08 964.5 2528.14 964.5L3525.86 964.5C3538.92 964.5 3549.5 975.082 3549.5 988.136L3549.5 1267.86C3549.5 1280.92 3538.92 1291.5 3525.86 1291.5L2528.14 1291.5C2515.08 1291.5 2504.5 1280.92 2504.5 1267.86Z" stroke="#F1F3F4" stroke-width="4.58333" stroke-miterlimit="8" fill="#FFFFFF" fill-rule="evenodd"/><text font-family="Aileron Bold,Aileron Bold_MSFontService,sans-serif" font-weight="700" font-size="60" transform="matrix(1 0 0 1 2741.56 1067)">Discrete Search Ops</text><text fill="#8082A4" font-family="Aileron,Aileron_MSFontService,sans-serif" font-weight="400" font-size="50" transform="matrix(1 0 0 1 2740.99 1144)">treat prompt operators as </text><text fill="#8082A4" font-family="Aileron,Aileron_MSFontService,sans-serif" font-weight="400" font-size="50" transform="matrix(1 0 0 1 2833.23 1211)">hyperparameters</text><path d="M2872.5 1370.14C2872.5 1357.08 2883.08 1346.5 2896.14 1346.5L3509.86 1346.5C3522.92 1346.5 3533.5 1357.08 3533.5 1370.14L3533.5 1649.86C3533.5 1662.92 3522.92 1673.5 3509.86 1673.5L2896.14 1673.5C2883.08 1673.5 2872.5 1662.92 2872.5 1649.86Z" stroke="#F1F3F4" stroke-width="4.58333" stroke-miterlimit="8" fill="#FFFFFF" fill-rule="evenodd"/><text font-family="Aileron Bold,Aileron Bold_MSFontService,sans-serif" font-weight="700" font-size="60" transform="matrix(1 0 0 1 3040.33 1449)">Scheduling</text><text fill="#8082A4" font-family="Aileron,Aileron_MSFontService,sans-serif" font-weight="400" font-size="50" transform="matrix(1 0 0 1 2987.05 1526)">parallelize prompts </text><text fill="#8082A4" font-family="Aileron,Aileron_MSFontService,sans-serif" font-weight="400" font-size="50" transform="matrix(1 0 0 1 3049.78 1593)">automatically</text><path d="M804.5 293.5 804.5 2056.57" stroke="#D9D9D9" stroke-width="4.58333" stroke-miterlimit="8" fill="none" fill-rule="evenodd"/><path d="M1976 806.834C1976 799.194 1982.19 793 1989.83 793L2259.17 793C2266.81 793 2273 799.194 2273 806.834L2273 862.166C2273 869.806 2266.81 876 2259.17 876L1989.83 876C1982.19 876 1976 869.806 1976 862.166Z" fill="#A8A9C1" fill-rule="evenodd"/><text fill="#FFFFFF" font-family="Aileron,Aileron_MSFontService,sans-serif" font-weight="400" font-size="46" transform="matrix(1 0 0 1 2066 851)">Beam</text><path d="M1649 812.667C1649 805.119 1655.12 799 1662.67 799L1932.33 799C1939.88 799 1946 805.119 1946 812.667L1946 867.333C1946 874.881 1939.88 881 1932.33 881L1662.67 881C1655.12 881 1649 874.881 1649 867.333Z" fill="#A8A9C1" fill-rule="evenodd"/><text fill="#FFFFFF" font-family="Aileron,Aileron_MSFontService,sans-serif" font-weight="400" font-size="46" transform="matrix(1 0 0 1 1717.91 856)">Genetic</text><path d="M3041 806.834C3041 799.194 3047.19 793 3054.83 793L3324.17 793C3331.81 793 3338 799.194 3338 806.834L3338 862.166C3338 869.806 3331.81 876 3324.17 876L3054.83 876C3047.19 876 3041 869.806 3041 862.166Z" fill="#A8A9C1" fill-rule="evenodd"/><text fill="#FFFFFF" font-family="Aileron,Aileron_MSFontService,sans-serif" font-weight="400" font-size="46" transform="matrix(1 0 0 1 3102.67 851)">Random</text><path d="M2714 812.667C2714 805.119 2720.12 799 2727.67 799L2997.33 799C3004.88 799 3011 805.119 3011 812.667L3011 867.333C3011 874.881 3004.88 881 2997.33 881L2727.67 881C2720.12 881 2714 874.881 2714 867.333Z" fill="#A8A9C1" fill-rule="evenodd"/><text fill="#FFFFFF" font-family="Aileron,Aileron_MSFontService,sans-serif" font-weight="400" font-size="46" transform="matrix(1 0 0 1 2819.32 856)">Grid</text></g></svg>